<?xml version="1.0" standalone="no"?>
<!DOCTYPE svg PUBLIC "-//W3C//DTD SVG 20010904//EN"
 "http://www.w3.org/TR/2001/REC-SVG-20010904/DTD/svg10.dtd">
<svg version="1.0" xmlns="http://www.w3.org/2000/svg"
 width="2048.000000pt" height="1033.000000pt" viewBox="0 0 2048.000000 1033.000000"
 preserveAspectRatio="xMidYMid meet">

<g transform="translate(0.000000,1033.000000) scale(0.100000,-0.100000)"
fill="#000000" stroke="none">
<path d="M0 5165 l0 -5165 10240 0 10240 0 0 5165 0 5165 -10240 0 -10240 0 0
-5165z m5034 906 c3 -4 34 -11 70 -15 293 -30 551 -305 615 -656 29 -160 30
-424 1 -552 -69 -309 -202 -500 -427 -612 -131 -66 -215 -75 -650 -76 l-343 0
0 25 c0 25 25 45 57 45 24 0 75 57 60 67 -6 4 -68 10 -137 14 -69 4 -126 7
-127 8 -2 1 -3 7 -3 15 0 19 32 26 122 26 56 0 81 4 92 16 19 19 21 58 3 72
-9 7 -123 12 -334 14 -177 2 -325 6 -329 11 -4 4 -3 12 4 19 6 6 8 24 5 39
l-5 29 305 0 c306 0 352 4 364 36 9 25 -19 44 -74 51 l-51 6 1 43 c3 82 18 79
-407 81 -248 1 -381 5 -394 12 -12 6 -40 11 -64 11 -48 0 -158 16 -166 25 -11
11 10 17 124 32 83 12 235 18 504 22 301 5 391 9 413 20 56 29 26 47 -93 54
-207 13 -231 18 -241 43 -10 27 -4 26 -123 28 -62 1 -91 5 -94 14 -2 8 11 12
46 12 53 0 68 10 74 50 l3 25 358 3 c226 1 357 6 357 12 0 6 -55 10 -140 10
l-140 0 0 44 0 44 133 4 c72 1 138 7 145 11 29 19 -7 27 -130 27 -114 0 -136
3 -179 22 l-49 23 0 61 c0 45 -4 65 -17 75 -12 11 -76 15 -292 17 -152 1 -295
7 -318 12 -23 6 -63 10 -88 10 -69 0 -110 28 -67 45 9 4 50 11 90 15 44 4 80
14 91 24 14 12 39 16 118 16 113 0 120 4 125 65 l3 40 358 -3 c312 -2 357 0
357 13 0 12 -20 15 -117 15 -148 0 -160 3 -166 43 -6 39 7 57 40 57 35 0 63
18 63 40 0 18 7 20 60 20 33 0 60 4 60 10 0 10 -13 14 -36 11 -7 -1 -17 12
-22 29 -10 28 -14 30 -61 30 -29 0 -51 5 -51 10 0 16 17 19 124 23 58 1 101 7
103 13 2 7 -13 9 -42 7 -50 -5 -75 8 -75 38 0 18 13 19 299 19 165 0 302 -4
305 -9z m914 -18 c15 -38 14 -1862 0 -1880 -16 -20 -56 -15 -68 6 -7 13 -10
325 -10 942 0 844 1 924 17 941 23 26 49 22 61 -9z m1108 18 c5 -5 41 -16 80
-25 38 -10 82 -27 97 -39 26 -21 27 -23 13 -62 -8 -22 -20 -41 -28 -43 -8 -1
-39 8 -69 22 -69 30 -220 50 -312 41 -139 -13 -279 -73 -397 -168 -101 -82
-179 -210 -225 -372 -9 -33 -22 -76 -28 -95 -15 -49 -13 -353 3 -421 17 -72
64 -209 91 -262 64 -126 189 -243 319 -297 30 -13 60 -27 65 -30 54 -38 306
-55 396 -26 24 8 56 17 72 20 l27 6 -2 423 -3 422 -163 2 c-89 0 -169 4 -177
7 -19 7 -20 79 -2 94 17 15 407 15 424 0 18 -15 18 -997 0 -1021 -16 -23 -118
-57 -197 -67 -36 -5 -89 -12 -118 -16 -52 -7 -86 -2 -232 34 -198 48 -393 208
-486 399 -26 54 -51 111 -55 128 -4 16 -14 55 -22 85 -29 109 -35 160 -36 310
-1 364 125 653 355 811 65 45 222 117 272 125 23 4 42 10 42 15 0 12 283 12
296 0z m1328 -8 c3 -8 6 -34 6 -57 l0 -43 -107 -5 c-60 -3 -238 -4 -398 -3
-159 1 -298 -2 -307 -7 -16 -8 -17 -35 -16 -334 1 -190 5 -327 11 -331 5 -3
207 -5 449 -4 288 1 446 -2 459 -9 25 -14 27 -87 3 -97 -9 -3 -220 -7 -468 -7
l-451 -1 0 -440 0 -440 405 -3 c222 -1 408 -6 412 -10 9 -10 13 -85 5 -99 -5
-8 -138 -11 -446 -12 -375 -1 -441 1 -451 14 -9 11 -13 135 -14 502 l-1 488
-65 5 -65 5 -3 44 c-4 53 5 61 75 61 48 0 52 2 57 28 3 15 5 190 4 388 0 199
2 367 6 373 6 8 126 11 451 11 386 -1 444 -3 449 -17z m1094 -35 l-3 -53 -195
-5 -195 -5 -3 -895 c-2 -693 -5 -896 -15 -902 -23 -15 -56 -8 -62 13 -4 11 -7
397 -7 857 0 460 -3 857 -7 882 l-6 45 -190 5 -190 5 -3 53 -3 52 441 0 441 0
-3 -52z m1107 19 c4 -19 5 -47 3 -63 l-3 -28 -402 -1 c-276 0 -405 -3 -413
-11 -12 -12 -10 -647 2 -659 3 -4 213 -7 465 -8 l458 -2 3 -48 c2 -34 -1 -49
-11 -53 -8 -3 -219 -6 -468 -7 l-454 -2 -2 -431 c-2 -350 0 -434 10 -443 10
-7 140 -12 413 -13 l399 -3 0 -55 0 -55 -452 -3 c-249 -1 -454 -1 -455 0 -1 2
-5 228 -8 503 l-5 500 -50 1 c-79 1 -76 -1 -73 57 l3 52 63 3 62 3 0 384 c0
211 3 390 6 399 5 14 55 16 455 16 l448 0 6 -33z m1087 14 c26 -7 52 -19 58
-27 14 -15 8 -49 -13 -77 -12 -17 -20 -18 -114 -7 -77 9 -113 9 -150 0 -26 -6
-65 -15 -85 -19 -176 -38 -381 -253 -433 -453 -9 -35 -21 -81 -27 -103 -6 -22
-12 -116 -14 -210 -5 -241 18 -376 87 -518 83 -171 260 -315 431 -348 38 -8
105 -10 184 -6 l124 6 11 -40 c17 -54 2 -67 -97 -86 -95 -18 -206 -6 -319 35
-233 83 -427 327 -487 612 -45 217 -26 616 36 735 9 17 16 35 16 40 0 6 16 42
36 80 40 81 129 185 212 249 96 73 233 136 300 136 20 0 44 5 52 10 18 13 127
7 192 -9z m1028 -30 c0 -29 -5 -53 -12 -57 -7 -5 -94 -7 -194 -5 l-182 2 -6
-58 c-3 -32 -5 -435 -5 -895 1 -460 -2 -842 -6 -847 -5 -9 -60 -16 -67 -8 -2
1 -5 407 -8 901 l-5 900 -185 3 c-102 2 -191 6 -198 8 -10 4 -12 19 -8 52 2
27 5 49 5 51 1 1 197 2 436 2 l435 0 0 -49z m166 35 c12 -12 14 -119 14 -693
1 -539 4 -690 14 -735 21 -88 77 -178 149 -242 85 -75 157 -107 255 -113 71
-5 84 -3 156 27 141 59 250 187 283 330 9 41 12 232 13 728 0 440 4 680 10
693 16 29 68 26 75 -4 4 -13 4 -338 2 -722 -3 -542 -7 -710 -17 -745 -51 -173
-154 -296 -312 -373 -95 -46 -237 -73 -253 -47 -3 6 -19 10 -35 10 -39 0 -133
45 -195 93 -72 56 -139 137 -170 204 -61 130 -58 96 -62 866 -3 534 -1 712 8
723 15 18 46 18 65 0z m1724 -5 c64 -15 180 -71 230 -112 55 -46 135 -144 164
-204 56 -115 69 -178 70 -335 1 -230 -39 -348 -170 -489 -103 -112 -230 -181
-331 -181 -46 0 -73 -8 -73 -21 0 -14 118 -129 195 -189 77 -61 192 -138 243
-164 56 -29 196 -86 209 -86 9 0 13 -15 13 -42 0 -70 -7 -74 -86 -50 -82 25
-264 116 -331 166 -26 19 -68 50 -93 68 -133 96 -330 323 -330 380 0 15 10 38
23 52 22 24 22 24 77 10 123 -34 257 -1 377 92 142 110 202 266 190 491 -9
166 -50 263 -153 367 -135 136 -237 158 -629 139 l-160 -8 0 -879 c-1 -849 -2
-879 -20 -892 -25 -18 -40 -18 -56 2 -20 25 -23 1849 -2 1882 l14 23 287 -4
c182 -2 307 -8 342 -16z m1679 5 c7 -8 11 -34 9 -58 l-3 -43 -60 -6 c-33 -3
-216 -4 -407 -2 -323 3 -347 2 -352 -15 -8 -25 -5 -638 3 -650 5 -8 147 -12
469 -13 l462 -1 0 -54 0 -54 -212 -1 c-117 0 -328 -2 -468 -2 l-255 -2 0 -440
0 -440 398 -2 c219 -1 405 -4 413 -7 9 -3 14 -20 14 -45 0 -76 37 -70 -449
-70 -248 0 -443 4 -451 9 -13 8 -15 76 -16 495 -1 274 -5 490 -10 495 -5 5
-34 10 -64 12 -52 3 -54 4 -61 35 -10 48 9 67 62 65 24 -1 50 2 58 7 11 7 14
79 15 388 1 321 3 381 16 395 14 16 55 17 446 18 362 0 433 -2 443 -14z
m-3769 -2465 c0 -199 0 -200 23 -203 20 -3 20 -5 -10 -21 -38 -20 -69 -22 -76
-4 -4 10 -7 10 -18 0 -19 -18 -90 -16 -118 3 -30 22 -51 73 -51 126 0 102 98
187 171 148 18 -10 19 -7 19 45 0 48 -3 57 -22 64 l-23 9 25 10 c51 19 55 20
68 21 9 1 12 -45 12 -198z m155 169 c0 -33 -40 -41 -50 -11 -9 28 2 43 28 39
16 -2 22 -10 22 -28z m490 20 c11 -17 -5 -50 -24 -50 -28 0 -46 26 -31 45 14
17 46 20 55 5z m617 -192 c3 -200 3 -203 26 -213 39 -17 24 -25 -48 -25 -67 0
-93 12 -50 23 19 5 20 14 20 186 0 179 0 182 -22 190 -22 8 -21 9 12 24 62 27
59 35 62 -185z m332 187 c9 -24 -4 -45 -29 -45 -25 0 -38 21 -29 45 4 8 16 15
29 15 13 0 25 -7 29 -15z m481 -15 c0 -18 -6 -26 -23 -28 -24 -4 -38 18 -28
44 3 9 15 14 28 12 17 -2 23 -10 23 -28z m343 3 c-4 -35 -43 -45 -53 -14 -9
28 1 41 31 41 22 0 25 -4 22 -27z m622 12 c10 -12 10 -18 0 -30 -7 -8 -18 -15
-25 -15 -19 0 -36 25 -29 44 8 20 38 21 54 1z m-2240 -90 c0 -43 1 -45 30 -45
17 0 30 -4 30 -10 0 -5 -13 -10 -30 -10 l-30 0 0 -114 c0 -123 7 -139 49 -110
27 19 28 1 1 -26 -24 -24 -72 -26 -91 -3 -8 9 -15 43 -15 82 -1 36 -2 90 -3
119 -1 45 -4 52 -21 52 -17 0 -13 7 20 40 22 22 40 47 40 55 0 8 5 15 10 15 6
0 10 -20 10 -45z m1472 -45 c39 0 35 -18 -4 -22 l-33 -3 0 -90 c-1 -49 1 -100
3 -112 5 -25 31 -30 50 -11 21 21 23 2 1 -25 -26 -34 -83 -38 -99 -8 -5 11
-10 72 -10 135 0 112 -1 116 -21 116 -19 0 -17 5 20 45 22 24 42 50 42 57 1 7
6 -8 12 -34 9 -44 13 -48 39 -48z m588 45 c0 -43 1 -45 30 -45 17 0 30 -4 30
-10 0 -5 -13 -10 -30 -10 l-30 0 0 -114 c0 -123 7 -139 49 -110 27 20 27 7 -1
-23 -25 -27 -64 -30 -90 -6 -15 14 -18 32 -18 135 0 114 -1 118 -22 118 -19 0
-17 4 15 35 19 19 38 44 42 55 11 35 25 22 25 -25z m-3355 -60 c23 -23 25 -31
25 -130 0 -107 7 -124 38 -93 9 9 12 9 12 0 0 -21 -39 -52 -65 -52 -13 0 -28
8 -33 17 -9 16 -11 16 -36 0 -30 -20 -89 -22 -105 -4 -6 8 -14 27 -17 44 -8
42 37 92 105 117 42 15 51 22 51 42 0 26 -32 64 -54 64 -18 0 -33 -20 -38 -49
-4 -32 -35 -52 -48 -31 -16 25 -12 40 19 71 40 39 109 41 146 4z m655 -111 c0
-127 1 -136 20 -141 41 -11 18 -23 -45 -23 -37 0 -65 4 -65 10 0 6 6 10 14 10
18 0 26 31 26 106 0 89 -9 124 -31 124 -33 0 -20 18 24 33 23 9 45 16 50 16 4
1 7 -60 7 -135z m304 119 c53 -9 76 -33 32 -33 -24 0 -25 -2 -20 -44 6 -38 3
-47 -23 -76 -26 -29 -36 -33 -84 -34 -47 -1 -54 -4 -57 -22 -3 -20 3 -22 79
-26 75 -4 85 -8 106 -32 29 -34 24 -58 -21 -104 -25 -25 -43 -34 -83 -39 -66
-7 -114 2 -141 28 -28 26 -28 32 8 72 26 30 28 36 15 47 -21 18 -19 33 10 60
24 23 24 24 6 37 -27 18 -44 74 -32 105 5 14 24 37 42 52 35 29 36 30 163 9z
m177 0 c1 -10 1 -65 0 -122 -2 -114 3 -141 25 -141 8 0 14 -4 14 -10 0 -6 -28
-10 -65 -10 -63 0 -86 12 -45 23 19 5 21 12 18 114 -3 103 -4 108 -25 111 -35
5 -27 19 20 35 55 20 57 20 58 0z m433 -4 c25 -20 26 -24 26 -130 0 -111 7
-128 38 -97 9 9 12 9 12 0 0 -42 -87 -71 -97 -32 -5 20 -5 20 -30 0 -30 -23
-95 -27 -112 -7 -6 8 -14 28 -17 46 -8 41 19 72 99 112 63 32 72 54 37 89 -32
32 -70 19 -70 -24 0 -35 -17 -53 -37 -40 -29 18 -27 43 7 74 40 37 103 41 144
9z m517 -21 c0 -24 0 -79 -1 -123 -1 -88 5 -115 26 -115 8 0 14 -4 14 -10 0
-6 -28 -10 -65 -10 -37 0 -65 4 -65 10 0 6 7 10 15 10 21 0 26 32 23 135 -3
85 -4 90 -25 93 -35 5 -27 19 20 35 58 21 57 22 58 -25z m159 16 l0 -25 33 25
c57 44 109 31 127 -32 5 -20 10 -77 10 -125 0 -80 2 -89 20 -94 43 -11 17 -23
-50 -23 -67 0 -93 12 -50 23 18 5 20 14 20 111 0 104 -1 107 -25 118 -22 10
-30 8 -53 -9 -26 -20 -27 -23 -27 -119 0 -95 1 -99 23 -102 50 -7 18 -22 -48
-22 -40 0 -70 4 -70 10 0 6 6 10 14 10 19 0 26 32 26 122 0 89 -5 108 -31 108
-33 0 -21 18 24 33 57 21 57 21 57 -9z m330 -110 c0 -127 1 -136 20 -141 43
-11 17 -23 -50 -23 -40 0 -70 4 -70 10 0 6 7 10 15 10 20 0 31 33 29 90 -4
147 -3 140 -24 140 -32 0 -23 16 18 33 64 26 62 30 62 -119z m340 12 c0 -132
4 -156 26 -156 8 0 14 -4 14 -10 0 -6 -28 -10 -65 -10 -37 0 -65 4 -65 10 0 6
6 10 14 10 18 0 26 31 26 106 0 89 -9 124 -31 124 -31 0 -22 16 19 33 64 26
62 29 62 -107z m268 100 c13 -13 18 -41 20 -127 4 -103 6 -110 23 -106 23 6
24 -1 2 -25 -20 -22 -69 -24 -77 -2 -6 15 -8 15 -31 0 -31 -21 -83 -20 -107 1
-11 10 -18 30 -18 54 0 31 6 42 33 63 17 13 51 32 75 41 35 15 42 22 42 45 0
33 -23 60 -50 60 -22 0 -31 -12 -39 -54 -7 -34 -37 -48 -47 -22 -11 27 5 65
34 81 34 19 117 14 140 -9z m352 -100 c0 -132 4 -156 26 -156 8 0 14 -4 14
-10 0 -6 -28 -10 -65 -10 -37 0 -65 4 -65 10 0 6 7 10 15 10 21 0 26 32 23
135 -3 85 -4 89 -27 95 -19 4 -21 7 -10 16 13 11 65 31 82 33 4 1 7 -55 7
-123z m596 90 c21 -21 34 -44 34 -60 l0 -26 -96 0 -96 0 6 -37 c17 -95 135
-126 168 -45 9 22 12 23 15 9 5 -21 -32 -83 -57 -97 -28 -15 -93 -12 -118 6
-31 22 -62 86 -62 131 0 79 66 153 137 153 26 0 43 -8 69 -34z m-408 17 c-28
-7 -29 -32 -2 -96 15 -34 31 -73 36 -87 8 -22 12 -17 43 60 40 98 41 105 18
119 -14 8 -7 10 30 11 l48 0 -18 -23 c-10 -13 -40 -78 -67 -145 -28 -68 -55
-121 -60 -119 -6 2 -23 33 -38 68 -64 153 -83 191 -102 205 -18 13 -13 14 54
13 41 -1 68 -3 58 -6z"/>
<path d="M4722 5952 c-9 -7 -12 -182 -13 -830 0 -452 2 -826 6 -832 11 -18
358 -13 424 6 157 45 266 120 362 250 150 204 200 580 119 894 -63 240 -219
417 -426 484 -70 23 -101 26 -269 31 -104 2 -196 1 -203 -3z"/>
<path d="M12354 3630 c-13 -5 -27 -25 -34 -46 -16 -46 -7 -140 15 -164 22 -24
61 -33 85 -20 18 10 20 21 20 105 0 82 -3 98 -20 115 -22 22 -33 23 -66 10z"/>
<path d="M11929 3507 c-45 -24 -55 -42 -45 -82 8 -32 32 -38 67 -18 26 16 29
22 29 70 0 29 -2 53 -3 53 -2 0 -24 -10 -48 -23z"/>
<path d="M12829 3619 c-17 -17 -20 -30 -16 -66 12 -110 107 -110 107 0 0 76
-47 110 -91 66z"/>
<path d="M12789 3334 c-12 -24 -12 -28 10 -45 34 -28 143 -27 172 2 44 44 11
66 -102 68 -61 1 -67 -1 -80 -25z"/>
<path d="M13504 3511 c-23 -10 -44 -26 -47 -36 -23 -59 11 -97 63 -70 28 14
30 20 30 70 0 30 -1 55 -2 55 -2 0 -21 -9 -44 -19z"/>
<path d="M15105 3507 c-23 -13 -44 -34 -50 -51 -8 -24 -6 -31 14 -47 29 -23
33 -23 60 -1 19 14 22 26 19 69 l-3 52 -40 -22z"/>
<path d="M16012 3623 c-11 -10 -23 -28 -27 -40 -6 -22 -4 -23 58 -23 63 0 64
1 60 25 -9 45 -59 66 -91 38z"/>
</g>
</svg>
