<?xml version="1.0" standalone="no"?>
<!DOCTYPE svg PUBLIC "-//W3C//DTD SVG 20010904//EN"
 "http://www.w3.org/TR/2001/REC-SVG-20010904/DTD/svg10.dtd">
<svg version="1.0" xmlns="http://www.w3.org/2000/svg"
 width="900.000000pt" height="900.000000pt" viewBox="0 0 900.000000 900.000000"
 preserveAspectRatio="xMidYMid meet">

<g transform="translate(0.000000,900.000000) scale(0.100000,-0.100000)"
fill="#000000" stroke="none">
<path d="M0 4500 l0 -4500 4500 0 4500 0 0 4500 0 4500 -4500 0 -4500 0 0
-4500z m1316 649 c141 -16 250 -82 325 -194 136 -201 142 -555 14 -770 -52
-88 -134 -157 -236 -197 -49 -20 -77 -22 -311 -26 -256 -3 -258 -3 -258 17 0
13 6 21 17 21 18 0 53 28 53 42 0 4 -33 8 -72 8 -68 0 -110 11 -96 25 5 6 53
12 109 14 34 1 46 36 19 51 -11 6 -105 10 -215 10 -176 0 -196 2 -191 16 3 9
6 22 6 30 0 12 33 14 193 14 143 0 198 3 211 13 15 11 15 15 4 24 -7 6 -26 13
-43 15 -22 2 -30 8 -31 23 -3 60 17 55 -236 55 -127 0 -245 4 -262 10 -17 5
-57 12 -90 16 -32 3 -54 9 -50 14 19 17 186 30 389 30 199 0 283 9 270 30 -2
4 -51 11 -107 15 -84 6 -105 10 -116 26 -11 15 -26 19 -78 19 -42 0 -63 4 -59
10 4 6 10 8 15 5 18 -11 60 7 60 26 0 17 8 19 73 19 41 0 143 3 228 8 151 7
152 7 64 12 -88 5 -90 6 -90 30 0 25 2 25 88 28 111 4 115 22 4 22 -107 0
-137 13 -137 61 0 19 -5 40 -12 47 -8 8 -63 12 -182 12 -159 0 -290 11 -304
25 -12 11 17 27 59 32 24 2 53 9 64 14 11 5 47 10 80 11 58 3 60 4 65 33 l5
30 223 -3 c147 -2 222 0 222 7 0 6 -36 11 -87 13 -88 3 -88 3 -91 31 -3 23 0
27 22 27 15 0 30 8 36 20 8 14 22 20 48 21 20 1 30 3 21 6 -10 2 -19 13 -22
24 -4 14 -14 19 -37 19 -62 0 -18 20 48 22 41 1 53 3 30 5 -29 3 -38 9 -38 23
0 18 9 19 158 19 86 -1 189 -5 228 -10z m562 -587 c2 -532 1 -593 -14 -599 -8
-3 -20 -1 -25 4 -12 12 -15 1165 -4 1184 4 5 14 9 23 7 16 -3 17 -53 20 -596z
m742 575 c66 -22 83 -43 61 -76 -7 -11 -18 -10 -62 5 -72 25 -215 25 -284 0
-155 -54 -256 -167 -300 -334 -21 -83 -21 -266 0 -341 43 -149 113 -241 235
-306 70 -37 81 -40 175 -43 57 -2 118 1 143 7 l42 12 0 264 0 265 -109 0 -109
0 -4 31 c-3 18 0 33 7 35 6 3 69 3 141 2 l129 -3 3 -316 c1 -244 -1 -319 -10
-326 -56 -44 -248 -61 -340 -29 -134 45 -238 128 -295 234 -131 244 -96 615
74 789 132 134 334 186 503 130z m767 12 c7 -6 13 -24 13 -40 l0 -29 -260 0
-260 0 2 -207 3 -208 290 -5 290 -5 0 -30 0 -30 -290 -5 -290 -5 -2 -272 -3
-273 261 0 260 0 -3 -37 -3 -38 -282 -2 -283 -2 0 314 0 315 -40 0 c-34 0 -40
3 -46 26 -8 32 2 42 46 46 l35 3 3 242 2 242 28 3 c72 10 516 7 529 -3z m691
-21 l-3 -33 -120 -5 -120 -5 -5 -560 -5 -560 -22 -3 -23 -3 0 566 0 567 -27
-2 c-16 -1 -72 -2 -125 -1 l-98 1 0 35 0 35 276 0 275 0 -3 -32z m690 -7 l-3
-36 -252 -3 -253 -2 -1 -33 c-1 -37 0 -295 0 -349 l1 -38 291 0 290 0 -3 -32
-3 -33 -290 -5 -289 -5 -1 -263 c0 -145 2 -268 5 -273 3 -5 118 -10 255 -11
l250 -3 3 -38 3 -37 -283 2 -283 3 -3 313 -2 312 -40 0 c-39 0 -40 1 -40 35 0
34 1 35 40 35 l40 0 0 243 c0 134 3 246 6 250 3 3 132 5 285 4 l280 -1 -3 -35z
m661 28 c57 -12 65 -20 57 -53 -5 -21 -9 -22 -95 -18 -103 5 -149 -7 -232 -60
-71 -45 -130 -125 -164 -218 -21 -61 -28 -99 -32 -200 -8 -203 29 -331 129
-436 30 -32 79 -70 113 -87 56 -29 67 -31 167 -32 105 0 107 0 113 -25 8 -31
-11 -46 -73 -54 -68 -8 -161 8 -223 39 -30 16 -84 58 -122 97 -75 76 -111 143
-141 263 -24 95 -24 303 0 400 46 188 169 326 338 375 73 22 99 23 165 9z
m661 -24 l0 -34 -122 -3 -123 -3 -2 -530 c-1 -291 -2 -543 -2 -558 -1 -31 -28
-48 -42 -26 -5 8 -9 262 -9 566 l0 552 -122 3 -123 3 -3 33 -3 32 275 0 276 0
0 -35z m110 -34 c0 -38 1 -239 3 -447 2 -375 2 -380 26 -432 29 -63 116 -147
169 -162 129 -35 251 23 319 152 l28 53 3 448 c3 387 5 449 18 454 9 3 20 1
25 -4 16 -16 12 -868 -4 -928 -58 -211 -286 -321 -454 -217 -77 47 -133 114
-161 195 -21 60 -22 76 -22 500 -1 241 2 442 5 447 4 6 15 10 26 10 17 0 19
-7 19 -69z m1044 59 c121 -19 215 -89 271 -203 83 -169 56 -389 -64 -519 -48
-52 -134 -99 -196 -106 -26 -2 -45 -10 -45 -17 0 -7 21 -32 48 -56 89 -84 208
-161 297 -194 59 -22 63 -27 57 -64 l-4 -29 -55 19 c-156 53 -343 194 -435
328 -26 36 -29 48 -21 70 6 18 15 25 29 22 10 -2 51 -4 89 -4 56 0 80 5 120
25 107 56 167 158 173 295 6 117 -23 199 -92 268 -87 86 -116 95 -321 95
l-175 0 -2 -557 -3 -558 -25 0 -25 0 -3 585 c-1 322 0 590 2 595 5 14 300 17
380 5z m1084 -9 c2 -7 1 -23 -2 -36 l-6 -25 -255 0 -255 0 0 -210 0 -210 293
-2 292 -3 3 -32 3 -33 -295 0 -296 0 0 -275 0 -275 258 -2 257 -3 0 -35 0 -35
-277 -2 c-208 -2 -279 1 -285 10 -4 7 -9 134 -9 282 -1 149 -2 284 -3 302 -1
29 -4 32 -38 35 -35 3 -38 6 -38 33 0 27 4 30 35 33 19 2 38 8 42 14 3 6 5
113 2 237 -2 150 0 229 7 238 15 17 561 12 567 -6z m-2358 -1525 c0 -90 3
-126 13 -129 25 -9 -3 -19 -64 -23 -54 -4 -65 -2 -85 17 -37 34 -34 101 6 141
25 25 36 29 60 24 28 -5 30 -3 30 25 0 19 -6 32 -17 36 -14 6 -12 9 12 19 17
7 33 13 38 14 4 0 7 -56 7 -124z m98 101 c2 -12 -3 -17 -17 -17 -12 0 -21 6
-21 13 0 31 32 34 38 4z m300 0 c2 -12 -3 -17 -17 -17 -12 0 -21 6 -21 13 0
31 32 34 38 4z m392 -117 c0 -93 3 -130 13 -133 6 -3 -8 -6 -32 -6 -35 -1 -42
2 -33 11 16 16 17 224 1 234 -8 4 -3 11 12 20 13 7 27 10 31 8 5 -3 8 -63 8
-134z m198 117 c2 -10 -3 -17 -12 -17 -18 0 -29 16 -21 31 9 14 29 6 33 -14z
m308 12 c9 -16 -12 -33 -31 -25 -14 5 -15 9 -5 21 15 18 26 19 36 4z m212 -12
c2 -12 -3 -17 -17 -17 -12 0 -21 6 -21 13 0 31 32 34 38 4z m390 0 c2 -12 -3
-17 -17 -17 -12 0 -21 6 -21 13 0 31 32 34 38 4z m-1398 -47 c0 -24 4 -30 23
-31 l22 -2 -22 -4 c-21 -4 -23 -10 -23 -79 0 -74 5 -85 28 -62 7 7 12 8 12 2
0 -32 -63 -47 -74 -18 -3 9 -6 47 -6 85 0 54 -3 69 -15 69 -10 0 -6 8 10 25
14 13 25 29 25 35 0 5 5 10 10 10 6 0 10 -13 10 -30z m913 -31 l22 0 -22 -9
c-21 -8 -23 -16 -23 -74 0 -67 10 -86 35 -66 9 7 15 8 15 2 0 -17 -28 -34 -52
-30 -21 3 -23 8 -26 81 -2 54 -7 80 -16 83 -10 4 -8 11 10 29 13 13 25 30 26
37 0 7 3 -2 5 -19 3 -26 9 -33 26 -34z m390 0 c22 -2 22 -2 0 -6 -21 -4 -23
-10 -23 -73 0 -68 13 -96 32 -69 7 11 8 9 6 -6 -4 -27 -48 -33 -65 -9 -8 11
-13 46 -13 86 0 44 -4 68 -11 68 -7 0 0 12 15 26 14 15 27 32 28 38 0 6 3 -4
5 -21 3 -25 9 -33 26 -34z m-2122 1 c16 -9 19 -22 19 -80 0 -56 3 -70 15 -70
25 0 17 -19 -11 -26 -16 -4 -29 -2 -34 6 -5 9 -9 9 -14 1 -10 -16 -61 -13 -76
4 -22 27 -3 64 45 87 25 12 45 27 45 32 -1 40 -53 47 -58 8 -4 -27 -32 -30
-32 -3 0 39 60 63 101 41z m419 -79 c0 -62 4 -91 13 -94 6 -3 -8 -6 -32 -6
-35 -1 -42 2 -33 11 7 7 12 40 12 80 0 58 -3 68 -17 68 -12 1 -7 6 12 15 17 7
33 14 38 14 4 1 7 -39 7 -88z m190 73 c31 -6 42 -24 15 -24 -11 0 -14 -7 -10
-22 8 -33 -16 -60 -60 -67 -59 -9 -57 -31 3 -31 80 0 109 -47 56 -89 -61 -48
-197 -9 -139 39 9 7 12 22 9 40 -4 15 -1 31 5 34 8 5 6 16 -4 36 -17 33 -8 71
22 89 17 11 29 10 103 -5z m110 -67 c0 -51 5 -88 12 -95 9 -9 2 -12 -32 -11
-25 0 -39 3 -32 6 8 3 12 29 12 79 0 52 -4 74 -12 74 -13 1 30 29 45 30 4 0 7
-37 7 -83z m271 62 c13 -13 20 -32 19 -52 -4 -68 0 -98 11 -91 7 4 10 1 7 -7
-6 -18 -58 -25 -58 -8 0 10 -3 10 -12 1 -20 -20 -66 -15 -78 8 -17 32 -2 59
46 83 34 16 44 26 42 42 -4 30 -46 33 -50 3 -4 -29 -38 -38 -38 -9 0 24 36 51
67 51 13 0 32 -9 44 -21z m319 -64 c0 -69 3 -86 18 -94 13 -8 6 -10 -31 -11
-44 0 -47 1 -33 16 24 23 19 153 -5 138 -5 -3 -9 -1 -9 4 0 8 36 30 53 31 4 1
7 -37 7 -84z m100 70 c0 -14 3 -14 25 1 28 18 61 11 69 -14 3 -9 6 -45 7 -80
1 -46 6 -65 18 -72 12 -7 2 -9 -34 -9 -39 0 -46 2 -32 10 13 8 17 23 17 67 0
74 -10 90 -44 74 -24 -11 -26 -17 -26 -71 0 -47 4 -62 18 -70 13 -8 6 -10 -33
-10 -27 0 -44 3 -37 6 8 3 12 29 12 79 0 48 -4 73 -10 69 -5 -3 -10 -2 -10 3
0 8 36 30 53 31 4 1 7 -6 7 -14z m209 -122 c1 -23 7 -44 14 -46 6 -3 -10 -6
-38 -6 -39 0 -46 2 -32 10 25 15 25 137 0 146 -14 6 -12 9 12 19 l30 12 7 -46
c3 -26 7 -66 7 -89z m211 54 c0 -51 5 -88 12 -95 9 -9 2 -12 -32 -11 -25 0
-39 3 -32 6 8 3 12 29 12 79 0 52 -4 74 -12 74 -13 1 30 29 45 30 4 0 7 -37 7
-83z m160 63 c16 -16 20 -33 20 -86 0 -61 1 -65 17 -53 14 12 16 12 12 0 -9
-26 -37 -37 -59 -24 -12 8 -21 9 -25 3 -12 -19 -64 -11 -75 11 -15 27 9 64 56
86 25 13 34 23 32 38 -4 30 -45 33 -50 3 -3 -24 -28 -32 -35 -11 -6 18 34 53
62 53 14 0 34 -9 45 -20z m230 -75 c0 -57 4 -85 13 -88 6 -3 -10 -6 -38 -6
-39 0 -46 2 -32 10 14 8 17 24 17 79 0 49 -4 70 -12 70 -7 1 -2 7 12 14 14 8
28 12 32 10 5 -3 8 -43 8 -89z m365 70 c42 -41 34 -55 -35 -55 -67 0 -74 -9
-39 -54 25 -32 51 -33 79 -4 26 29 26 8 -1 -26 -44 -57 -129 -18 -129 60 0 88
72 133 125 79z m-252 8 c-18 -7 -16 -24 6 -74 l20 -43 20 48 c24 56 25 63 9
69 -7 3 1 6 19 6 l32 1 -18 -32 c-10 -18 -29 -59 -42 -90 -12 -32 -26 -58 -29
-58 -4 0 -22 35 -39 78 -18 42 -40 83 -49 90 -13 10 -8 12 34 11 27 0 43 -3
37 -6z"/>
<path d="M1100 4560 l0 -522 148 4 c138 3 150 5 200 31 162 85 242 246 242
484 -1 208 -52 346 -164 438 -82 67 -124 79 -283 83 l-143 4 0 -522z"/>
<path d="M5862 3618 c-7 -7 -12 -33 -12 -58 0 -55 25 -86 59 -75 18 5 21 14
21 64 0 58 -11 81 -40 81 -9 0 -21 -5 -28 -12z"/>
<path d="M5602 3544 c-23 -16 -30 -48 -12 -59 20 -12 50 15 50 45 0 34 -6 36
-38 14z"/>
<path d="M6164 3605 c-8 -34 11 -77 33 -73 26 5 38 33 27 65 -13 39 -51 44
-60 8z"/>
<path d="M6146 3444 c-9 -23 0 -32 37 -39 38 -7 87 9 87 29 0 28 -113 38 -124
10z"/>
<path d="M6582 3544 c-25 -17 -29 -52 -7 -60 23 -9 45 15 45 47 0 33 -7 35
-38 13z"/>
<path d="M7582 3544 c-26 -18 -29 -49 -6 -58 24 -9 44 12 44 45 0 33 -7 35
-38 13z"/>
<path d="M8152 3618 c-21 -21 -13 -28 28 -28 38 0 40 2 30 20 -12 22 -40 26
-58 8z"/>
</g>
</svg>
